<?xml version="1.0" encoding="utf-8"?>
<!-- Generator: Adobe Illustrator 28.0.0, SVG Export Plug-In . SVG Version: 6.00 Build 0)  -->
<svg version="1.1" id="Layer_1" xmlns="http://www.w3.org/2000/svg" xmlns:xlink="http://www.w3.org/1999/xlink" x="0px" y="0px"
	 viewBox="0 0 377 377.1" style="enable-background:new 0 0 377 377.1;" xml:space="preserve">
<style type="text/css">
	.st0{fill:#FFFFFF;}
</style>
<g id="Layer_1_00000139271616737710886490000016139553282218247055_">
</g>
<g>
	<path class="st0" d="M131.7,267.3c-0.6-0.3-1.2-0.5-1.7-0.8c-3.6-1.8-5-4.7-5-8.6c0-7.8,0-15.5,0-23.3c0-19.7,0-39.5,0-59.2
		c0-4.8,2.3-8.2,6.4-9.2c1-0.3,2.1-0.3,3.2-0.3c35.9,0,71.7,0,107.6,0c6.3,0,9.6,3.4,9.6,9.7c0,26.8-0.1,53.6,0.1,80.4
		c0,5.4-1.4,9.4-6.8,11.3C207.3,267.3,169.5,267.3,131.7,267.3z M199.6,200c7.5,0,15,0,22.5,0c3.6,0,6.3-2.6,6.4-6
		c0.1-3.6-2.3-6.3-6-6.6c-0.6-0.1-1.2,0-1.8,0c-11.7,0-23.3,0-35,0c-2.8,0-5.5,0-8.3,0c-2.9,0-5.1,1.2-6.2,3.9
		c-1.8,4.2,1.2,8.7,5.9,8.7C184.6,200,192.1,199.9,199.6,200z M199.7,210.3C199.7,210.3,199.7,210.3,199.7,210.3
		c-7.4,0-14.9,0-22.3,0c-3,0-5.3,1.5-6.3,4c-1.6,4.3,1.4,8.5,6.3,8.6c4.3,0.1,8.6,0,12.9,0c10.3,0,20.5,0,30.8,0
		c1.1,0,2.3-0.1,3.3-0.5c2.9-1,4.5-4,4-7c-0.5-2.9-3-5.1-6.1-5.1C214.8,210.3,207.2,210.3,199.7,210.3z M199.4,245.9
		C199.4,245.9,199.4,245.9,199.4,245.9c7.7,0,15.4,0,23.1,0c3,0,5.5-2.4,5.9-5.3c0.4-3.1-1.3-6-4.2-6.9c-1.1-0.3-2.2-0.4-3.4-0.4
		c-14.2,0-28.3,0-42.5,0c-0.8,0-1.6,0.1-2.4,0.2c-1.8,0.3-3.2,1.2-4.1,2.6c-1.3,2-1.5,4.2-0.4,6.3c1.1,2.3,3,3.5,5.6,3.5
		C184.5,245.9,192,245.9,199.4,245.9z M155.5,200.3c1.4-0.5,3-0.8,4.3-1.6c2.3-1.4,3.1-4.3,2.4-6.9c-0.8-2.8-3.2-4.5-6.4-4.5
		c-3.5-0.1-6,1.3-7.1,4.1C147.1,195.7,150.3,200.3,155.5,200.3z M155.3,210.3c-3.4,0-5.7,1.4-6.7,4.1c-1.2,3.3,0.5,6.9,3.8,8.1
		c4.1,1.5,8.4-0.2,9.6-3.8C163.5,214.4,160.4,209.9,155.3,210.3z M155.3,245.9c4,0,6.7-2.1,7-5.5c0.3-2.8-0.7-5-3.2-6.2
		c-2.8-1.4-5.7-1.4-8.3,0.4c-2.2,1.5-3.1,4.4-2.3,6.9C149.5,244.4,151.8,245.9,155.3,245.9z"/>
	<path class="st0" d="M233.6,161.6c-5.4,0-10.9,0-16.6,0c0-1.4,0-2.7,0-3.9c-0.1-5.2,0.2-10.4-0.4-15.6
		c-1.4-12.4-11.8-22.6-24.2-24.2c-15.3-2-29.2,7.7-32.2,22.8c-0.6,2.9-0.5,6-0.6,9.1c-0.1,3.9,0,7.8,0,11.8c-5.7,0-11.2,0-16.9,0
		c0-4.1-0.1-8.2,0-12.2c0.2-4.1,0.2-8.2,1-12.1c3.4-18.5,19.1-33.5,37.6-35.9c18.7-2.5,33.6,4.2,44.7,19.3c4.4,6,7.1,12.9,7.5,20.3
		C234,147.8,233.6,154.6,233.6,161.6z"/>
</g>
</svg>
