<?xml version="1.0" encoding="utf-8"?>
<!-- Generator: Adobe Illustrator 27.9.0, SVG Export Plug-In . SVG Version: 6.00 Build 0)  -->
<svg version="1.1" id="Layer_1" xmlns="http://www.w3.org/2000/svg" xmlns:xlink="http://www.w3.org/1999/xlink" x="0px" y="0px"
	 width="32" height="32" viewBox="0 0 1511 1511" style="enable-background:new 0 0 1511 1511;" xml:space="preserve">
<style type="text/css">
	.st0{fill:#EF463E;}
	.st1{fill:#FFFFFF;}
	.st2{fill:#F15A53;}
	.st3{fill:#F58984;}
	.st4{fill:#FFFEFE;}
</style>
<g>
	<g>
		<path class="st0" d="M0,1392.08c0-1.67,0-3.33,0-5c0.33-2.4,0.96-4.81,0.96-7.21C1,963.96,1,548.04,1,132.13
			c0-1.5,0.11-3.01-0.05-4.49c-0.1-0.93-0.62-1.81-0.94-2.72c0-1.67,0-3.33,0-5c0-0.67,0-1.33,0-2c0-1.67,0-3.33,0-5
			c0.63-1.59,1.57-3.14,1.84-4.79C7.28,74.75,23.41,47.7,50.19,27.13C73.45,9.26,100.01,1.07,129.21,1.07
			c415.88,0,831.77-0.01,1247.65,0.08c8.78,0,17.66,0.53,26.33,1.88c33.05,5.14,59.85,21.27,80.31,47.64
			c18.07,23.3,26.43,50,26.43,79.4c0,416.22,0.01,832.43-0.08,1248.65c0,8.45-0.66,16.97-1.84,25.34
			c-7.47,53.32-51.57,97.27-105.08,105.1c-2,0.29-3.91,1.22-5.86,1.85c-1.33,0-2.66,0-4,0c-0.67,0-1.33,0-2,0c-2,0-4,0-6,0
			c-2.4-0.33-4.81-0.96-7.21-0.96C962.29,1510,546.71,1510,131.13,1510c-1.5,0-3.01-0.11-4.49,0.05c-0.93,0.1-1.81,0.62-2.72,0.94
			c-1.67,0-3.33,0-5,0c-0.67,0-1.33,0-2,0c-1.67,0-3.33,0-5,0c-1.59-0.63-3.13-1.59-4.78-1.83
			c-53.93-8.05-97.26-51.38-105.31-105.31c-0.25-1.65-1.21-3.19-1.83-4.78c0-1.67,0-3.33,0-5C0,1393.41,0,1392.74,0,1392.08z
			 M502.87,252.83c2.55,0,4.54,0,6.53,0c139.74,0,279.48-0.02,419.21,0.04c9.45,0,18.9,0.8,28.35,0.87
			c8.78,0.06,17.48,0.64,26.14,2.07c10.49,1.74,21.14,2.81,31.47,5.23c21.78,5.1,42.93,12.34,63.16,21.95
			c32.1,15.25,60.86,35.42,86.25,60.25c12.57,12.29,23.89,25.72,34.25,39.97c13.84,19.04,25.53,39.32,34.62,60.97
			c11.36,27.03,19.49,55.03,22.33,84.37c1.03,10.66,2.5,21.31,2.83,32c0.33,10.59-0.53,21.23-0.86,31.84
			c-0.01,0.17,0.01,0.34-0.01,0.5c-1.32,9.24-2.36,18.54-4.04,27.72c-1.85,10.09-3.92,20.17-6.56,30.08
			c-6.81,25.56-17.13,49.7-30.24,72.69c-12.34,21.65-27.19,41.42-44.15,59.59c-12.7,13.6-26.72,25.78-41.71,36.86
			c-28.88,21.33-60.38,37.41-94.77,47.8c-12.34,3.73-24.74,7.12-37.54,8.84c-7.47,1.01-14.92,2.15-22.4,2.99
			c-7.36,0.82-14.76,1.89-22.15,1.89c-148.23,0.11-296.46,0.08-444.7,0.08c-1.95,0-3.9,0-5.82,0c0,42.55,0,84.57,0,126.91
			c1.87,0,3.35,0,4.83,0c147.57,0,295.13-0.01,442.7-0.01c1.5,0,3,0.03,4.5-0.08c8.4-0.61,16.79-1.28,25.19-1.9
			c5.1-0.38,10.25-0.38,15.29-1.11c9.88-1.42,19.68-3.3,29.54-4.87c17.28-2.76,34.16-7.23,50.81-12.45
			c38.12-11.96,73.95-28.89,107.5-50.6c20.7-13.4,40.29-28.32,58.27-45.15c16.98-15.89,33.05-32.69,47.47-51.05
			c14.68-18.69,27.93-38.28,39.58-58.95c14.51-25.73,26.11-52.78,35.04-80.93c5.62-17.71,10.43-35.65,13.3-54.05
			c1.44-9.21,2.82-18.43,4-27.68c1.15-8.96,2.83-17.97,2.82-26.95c-0.01-18.59,1.35-37.22-0.78-55.8
			c-0.86-7.52-1.24-15.1-2.07-22.62c-0.87-7.99-1.53-16.05-3.14-23.9c-3.01-14.7-6.03-29.44-10.16-43.85
			c-8.44-29.46-19.9-57.74-34.22-84.92c-18.73-35.54-42.01-67.75-69.38-97.02c-19.42-20.76-40.89-39.28-64.02-55.81
			c-37.75-26.97-78.74-47.63-122.98-61.57c-15.06-4.74-30.51-8.3-45.87-12.01c-7.62-1.84-15.42-2.99-23.2-4.06
			c-7.16-0.98-14.39-1.5-21.61-2.1c-8.71-0.73-17.42-1.54-26.14-1.92c-7.31-0.32-14.65-0.07-21.98-0.07c-143.24,0-286.47,0-429.71,0
			c-1.92,0-3.85,0-5.76,0C502.87,169.18,502.87,210.76,502.87,252.83z M1006.28,504.47c-2.67,0-4.82,0-6.98,0
			c-143.89,0-287.78,0.05-431.68-0.04c-35.61-0.02-70.72,3.87-105.31,12.29C396.8,532.68,337.99,562.15,286,605.07
			c-49.09,40.52-87.67,89.45-115.64,146.65c-27.95,57.15-42.52,117.63-44.31,181.17c-0.9,31.88,1.76,63.49,7.75,94.84
			c8.04,42.07,21.82,82.13,41.72,120.03c39.59,75.43,96.15,134.85,169.71,177.79c66.28,38.69,138.04,58.55,214.76,59.37
			c58.12,0.62,116.24,0.16,174.37,0.16c88.77,0.01,177.53,0,266.3,0c1.91,0,3.83,0,5.58,0c0-42.33,0-83.9,0-125.87
			c-2.25,0-4.21,0-6.18,0c-144.39,0-288.78-0.02-433.17,0.02c-26.42,0.01-52.45-3.04-78.03-9.62
			c-63.38-16.32-116.79-49.09-159.71-98.43c-47.98-55.15-73.42-119.63-77.09-192.57c-1.65-32.79,1.66-65.22,10.82-96.8
			c28.25-97.35,89.03-166.49,181.78-207.13c39.5-17.31,81.23-24.51,124.37-24.47c143.56,0.16,287.12,0.06,430.67,0.06
			c2.12,0,4.24,0,6.6,0C1006.28,588.17,1006.28,546.61,1006.28,504.47z"/>
		<path class="st1" d="M1397.08,1511c1.95-0.63,3.86-1.55,5.86-1.85c53.51-7.83,97.61-51.78,105.08-105.1
			c1.17-8.37,1.83-16.89,1.84-25.34c0.09-416.22,0.08-832.43,0.08-1248.65c0-29.4-8.36-56.1-26.43-79.4
			c-20.46-26.37-47.26-42.5-80.31-47.64c-8.67-1.35-17.55-1.88-26.33-1.88C960.98,1.06,545.09,1.07,129.21,1.07
			c-29.2,0-55.76,8.19-79.02,26.06C23.41,47.7,7.28,74.75,1.84,108.14c-0.27,1.65-1.21,3.19-1.84,4.79C0,75.28,0,37.64,0,0
			c503.67,0,1007.33,0,1511,0c0,503.67,0,1007.33,0,1511C1473.03,1511,1435.05,1511,1397.08,1511z"/>
		<path class="st1" d="M0,1399.07c0.63,1.59,1.59,3.13,1.83,4.78c8.05,53.93,51.38,97.26,105.31,105.31
			c1.65,0.25,3.19,1.21,4.78,1.83c-37.23,0-74.45,0-111.93,0C0,1473.69,0,1436.38,0,1399.07z"/>
		<path class="st2" d="M0,124.92c0.33,0.9,0.84,1.79,0.94,2.72c0.16,1.48,0.05,2.99,0.05,4.49c0,415.92,0,831.83-0.04,1247.75
			c0,2.4-0.62,4.81-0.96,7.21C0,966.36,0,545.64,0,124.92z"/>
		<path class="st2" d="M123.92,1511c0.9-0.33,1.79-0.84,2.72-0.94c1.48-0.16,2.99-0.05,4.49-0.05c415.58,0,831.17,0,1246.75,0.04
			c2.4,0,4.81,0.62,7.21,0.96C964.69,1511,544.31,1511,123.92,1511z"/>
		<path class="st3" d="M0,117.92c0,0.67,0,1.33,0,2C0,119.25,0,118.59,0,117.92z"/>
		<path class="st3" d="M0,1392.08c0,0.67,0,1.33,0,2C0,1393.41,0,1392.74,0,1392.08z"/>
		<path class="st3" d="M116.92,1511c0.67,0,1.33,0,2,0C118.26,1511,117.59,1511,116.92,1511z"/>
		<path class="st3" d="M1391.08,1511c0.67,0,1.33,0,2,0C1392.41,1511,1391.75,1511,1391.08,1511z"/>
		<path class="st4" d="M502.87,252.83c0-42.08,0-83.65,0-125.92c1.92,0,3.84,0,5.76,0c143.24,0,286.47,0,429.71,0
			c7.33,0,14.67-0.25,21.98,0.07c8.73,0.38,17.44,1.2,26.14,1.92c7.21,0.6,14.44,1.12,21.61,2.1c7.77,1.07,15.58,2.22,23.2,4.06
			c15.37,3.7,30.81,7.26,45.87,12.01c44.24,13.94,85.23,34.6,122.98,61.57c23.14,16.53,44.61,35.05,64.02,55.81
			c27.37,29.27,50.65,61.48,69.38,97.02c14.32,27.17,25.78,55.46,34.22,84.92c4.13,14.41,7.14,29.15,10.16,43.85
			c1.61,7.85,2.27,15.91,3.14,23.9c0.82,7.53,1.2,15.1,2.07,22.62c2.13,18.58,0.77,37.2,0.78,55.8c0,8.98-1.68,17.99-2.82,26.95
			c-1.18,9.25-2.56,18.47-4,27.68c-2.87,18.4-7.68,36.34-13.3,54.05c-8.93,28.15-20.54,55.2-35.04,80.93
			c-11.65,20.67-24.91,40.26-39.58,58.95c-14.42,18.36-30.49,35.16-47.47,51.05c-17.99,16.83-37.57,31.76-58.27,45.15
			c-33.55,21.71-69.38,38.64-107.5,50.6c-16.65,5.22-33.53,9.69-50.81,12.45c-9.85,1.57-19.66,3.45-29.54,4.87
			c-5.05,0.73-10.19,0.73-15.29,1.11c-8.4,0.62-16.79,1.29-25.19,1.9c-1.49,0.11-3,0.08-4.5,0.08
			c-147.57,0.01-295.13,0.01-442.7,0.01c-1.48,0-2.96,0-4.83,0c0-42.35,0-84.36,0-126.91c1.92,0,3.87,0,5.82,0
			c148.23,0,296.46,0.03,444.7-0.08c7.38-0.01,14.78-1.07,22.15-1.89c7.49-0.84,14.94-1.98,22.4-2.99
			c12.8-1.72,25.21-5.11,37.54-8.84c34.39-10.4,65.89-26.47,94.77-47.8c14.99-11.07,29.01-23.25,41.71-36.86
			c16.96-18.17,31.8-37.94,44.15-59.59c13.11-22.99,23.43-47.12,30.24-72.69c2.64-9.91,4.71-19.99,6.56-30.08
			c1.68-9.18,2.72-18.47,4.04-27.72c0.02-0.16,0.01-0.33,0.01-0.5c0.34-10.62,1.19-21.25,0.86-31.84c-0.33-10.68-1.8-21.34-2.83-32
			c-2.84-29.34-10.98-57.34-22.33-84.37c-9.09-21.65-20.78-41.94-34.62-60.97c-10.36-14.25-21.68-27.68-34.25-39.97
			c-25.4-24.83-54.15-45-86.25-60.25c-20.23-9.61-41.37-16.84-63.16-21.95c-10.33-2.42-20.97-3.49-31.47-5.23
			c-8.66-1.44-17.36-2.01-26.14-2.07c-9.45-0.07-18.9-0.86-28.35-0.87c-139.74-0.06-279.48-0.04-419.21-0.04
			C507.42,252.83,505.42,252.83,502.87,252.83z"/>
		<path class="st4" d="M1006.28,504.47c0,42.14,0,83.69,0,125.81c-2.36,0-4.48,0-6.6,0c-143.56,0-287.12,0.1-430.67-0.06
			c-43.14-0.05-84.87,7.16-124.37,24.47c-92.75,40.64-153.54,109.78-181.78,207.13c-9.16,31.57-12.47,64.01-10.82,96.8
			c3.67,72.94,29.11,137.41,77.09,192.57c42.92,49.34,96.33,82.11,159.71,98.43c25.58,6.59,51.61,9.63,78.03,9.62
			c144.39-0.04,288.78-0.02,433.17-0.02c1.97,0,3.93,0,6.18,0c0,41.97,0,83.54,0,125.87c-1.75,0-3.67,0-5.58,0
			c-88.77,0-177.53,0.01-266.3,0c-58.12,0-116.25,0.46-174.37-0.16c-76.72-0.82-148.48-20.67-214.76-59.37
			c-73.56-42.94-130.11-102.36-169.71-177.79c-19.89-37.9-33.68-77.96-41.72-120.03c-5.99-31.35-8.65-62.97-7.75-94.84
			c1.8-63.54,16.37-124.02,44.31-181.17c27.97-57.2,66.55-106.13,115.64-146.65c51.99-42.91,110.8-72.39,176.32-88.34
			c34.58-8.42,69.7-12.32,105.31-12.29c143.89,0.09,287.78,0.04,431.68,0.04C1001.46,504.47,1003.61,504.47,1006.28,504.47z"/>
	</g>
</g>
</svg>
