<?xml version="1.0" encoding="utf-8"?>
<!-- Generator: Adobe Illustrator 28.0.0, SVG Export Plug-In . SVG Version: 6.00 Build 0)  -->
<svg version="1.1" id="Layer_1" xmlns="http://www.w3.org/2000/svg" xmlns:xlink="http://www.w3.org/1999/xlink" x="0px" y="0px"
	 viewBox="0 0 377 377.1" style="enable-background:new 0 0 377 377.1;" xml:space="preserve">
<style type="text/css">
	.st0{fill:#FF443C;}
</style>
<g id="Layer_1_00000139271616737710886490000016139553282218247055_">
</g>
<g id="Layer_2_00000075132984810844388460000011939884486888659873_">
	<g>
		<g>
			<path class="st0" d="M0.1,188C0.1,136,0.2,83.9,0,31.9C0,19.6,5.3,10.6,15.4,4.2C20.1,1.2,25.5,0,31,0c105,0,210,0,315,0
				c16,0,30,13.7,30.8,29.6c0.1,1.3,0.1,2.5,0.1,3.8c0,103.3-0.1,206.6,0.1,309.8c0,16.9-9.7,29.3-26.2,33.6
				c-2.2,0.6-4.6,0.2-6.9,0.2c-103.7,0-207.5,0-311.2,0.1c-8.4,0-15.9-2.1-22.1-7.5c-5.6-4.8-9.4-11-10.3-18.6
				C0,348.8,0,346.6,0,344.4C0.1,292.3,0.1,240.2,0.1,188z M204,227.9c0-10.4,0.1-20.1,0-29.9c0-3.9-0.3-7.8-1-11.6
				c-0.8-4.2-3.4-7.6-7.8-8.2c-4-0.5-8.3-0.7-12.3,0.1c-5.5,1-8.5,5.1-9.5,10.6c-0.2,1.4-0.4,2.7-0.4,4.1c0,21.2-0.1,42.5,0,63.7
				c0.1,12.7,10.2,18.6,21.3,12.4c8.5-4.7,16.9-9.4,25.3-14.2c5.8-3.3,11.6-6.7,17.5-9.9c8.3-4.5,16.7-8.6,24.9-13.2
				c1.7-1,3.4-3.6,3.4-5.4c0.2-24.1,0.1-48.2,0.1-72.4c0-4.2-1.7-6.9-5.6-9c-21.1-11.6-42.1-23.3-63-35.3
				c-5.7-3.3-10.4-3.6-16.1-0.4c-20.6,11.7-41.4,23.3-62.2,34.7c-5.2,2.8-7.5,6.6-7.3,12.5c0.3,10.8,0.3,21.7,0.3,32.5
				c0,34-0.1,68.1-0.4,102.1c0,6.3,2.3,10.2,7.9,13.2c19.2,10.4,38.5,20.9,57.3,32.1c9.1,5.4,16.9,5.6,25.7-0.2
				c8.8-5.7,17.8-11,27-16.1c22.8-12.9,45.6-25.6,68.5-38.3c8.9-4.9,17.7-9.8,26.6-14.7c2.3-1.3,3.1-3.1,3.1-5.7
				c-0.1-13.3-0.1-26.5-0.1-39.8c0-34.2,0-68.3,0.1-102.5c0-4-0.3-7.2-4.4-9.5c-43.3-23.9-86.4-48-129.6-72.1
				c-3.3-1.8-6.2-1.7-9.4,0.1C173,44,162,50.3,150.9,56.4c-31,17.1-62,34.1-93,51.1c-5.2,2.8-7.5,6.9-7.5,12.6c0,1.6,0,3.2,0,4.9
				c0.2,29.8,0.4,59.5,0.4,89.3c0,12.1-0.8,24.2-0.4,36.3c0.4,12.2,6.5,21.1,17.8,26.2c2.1,0.9,4.2,1.8,6.4,2.6
				c6.6,2.4,6.7,2.3,6.7-4.9c0-35.8,0-71.5,0-107.3c0-8.3,0.2-16.6-0.3-24.9c-0.4-8,2.5-13.5,9.6-17.5
				c30.7-16.8,61.3-33.8,91.9-50.9c4.4-2.5,8.2-2.4,12.6,0.1c10.6,6.1,21.3,12,31.9,17.9c21.1,11.7,42.3,23.5,63.5,35.1
				c3.9,2.1,6,5,5.6,9.4c0,0.3,0,0.7,0,1c0.2,33.1,0.4,66.2,0.6,99.3c0,7.1-2.2,12.8-8.8,16.4c-17.8,9.5-35.6,19-53.2,28.7
				c-11.9,6.6-23.5,13.6-35.2,20.5c-7.6,4.4-14.9,3.7-22.3-0.6c-9.9-5.8-19.9-11.6-29.9-17.2c-3.4-1.9-5-4.5-5-8.3
				c0.1-5.7,0.3-11.3,0.3-17c0-25.9,0-51.7,0-77.6c0-3.3-0.3-6.7-0.2-10c0.1-2.8,0.6-5.4,3.5-7c13.2-7.3,26.4-14.7,39.6-22
				c2.4-1.3,4.6-1.3,7.2,0.1c11.4,6.6,22.7,13.3,34.3,19.3c6.5,3.3,8.4,7.9,8,14.8c-0.5,9.9-0.3,19.8-0.2,29.7
				c0,3.1-0.7,5.2-3.6,6.8c-8,4.3-15.9,8.8-23.9,13.2C206.5,226.9,205.7,227.2,204,227.9z"/>
		</g>
	</g>
</g>
</svg>
