<?xml version="1.0" encoding="utf-8"?>
<!-- Generator: Adobe Illustrator 28.0.0, SVG Export Plug-In . SVG Version: 6.00 Build 0)  -->
<svg version="1.1" id="Layer_1" xmlns="http://www.w3.org/2000/svg" xmlns:xlink="http://www.w3.org/1999/xlink" x="0px" y="0px"
	 viewBox="0 0 965 164" style="enable-background:new 0 0 965 164;" xml:space="preserve">
<style type="text/css">
	.st0{fill:#FF443C;}
</style>
<g id="Layer_1_00000139271616737710886490000016139553282218247055_">
</g>
<g id="Layer_2_00000075132984810844388460000011939884486888659873_">
	<g>
		<g>
			<path class="st0" d="M698.1,71c-4.3,0-8.2,0-12.5,0c0-13.2,0-26.4,0-39.6c-0.3-0.1-0.6-0.2-0.8-0.2c-2.1,3.7-4.2,7.4-6.3,11.1
				c-4.9,8.7-9.8,17.3-14.8,26c-2.9,5-8.9,5.1-11.8,0.1c-7.1-12.3-14.2-24.6-21.7-37.6c0,13.8,0,26.8,0,40.1c-4.3,0-8.2,0-12.5,0
				c-0.1-1.2-0.2-2.3-0.2-3.4c0-19.8,0-39.7,0-59.5c0-3.2,0.5-6,4-7.1c3.4-1.1,6,0.1,8.2,3.9c8.7,15,17.4,30,26,45.1
				c1.4,2.5,2.2,2.8,3.7,0.2c6.8-12,13.7-24,20.6-36c2-3.5,4.3-6.9,6.2-10.5c1.6-3.1,4.5-3.6,7-2.7c2,0.7,3.4,2.9,4.9,4.6
				c0.4,0.5,0.3,1.6,0.3,2.4c0,20.3,0,40.6,0,60.9C698.3,69.3,698.2,70,698.1,71z"/>
			<path class="st0" d="M609.3,93.1c0,4.3,0,8.1,0,12.5c-1.3,0-2.6,0-3.8,0c-12.7,0-25.4,0.1-38.1,0c-6.9-0.1-9.9,5.7-7.9,11.1
				c1.7,4.6,6,4.9,10.1,4.9c9.1,0.1,18.2,0,27.3,0c10,0,18.2,8.6,18.7,18.6c0.7,13.7-7.4,19.5-16,21.9c-0.5,0.1-1.1,0.3-1.7,0.3
				c-16.8,0-33.7,0-50.7,0c0-4.2,0-8.3,0-12.8c1.2,0,2.4,0,3.7,0c14.5,0,29.1-0.1,43.6,0c3.5,0,6.2-1.4,7.7-4.2
				c1.4-2.6,1.1-5.7-0.8-8.3c-1.9-2.5-4.5-3.1-7.4-3.1c-9.9,0-19.8,0.1-29.8-0.2c-9.3-0.3-17.4-8.3-17.8-17.5
				c-0.3-6.2,0.3-12,4.5-17c3.5-4.2,8.2-6.3,13.5-6.3C579.2,93,594.1,93.1,609.3,93.1z"/>
			<path class="st0" d="M821.1,23.8c0,15.6,0,31.2,0,47.1c-4.4,0-8.5,0-12.8,0c-0.1-1.2-0.2-2.3-0.2-3.4c0-20,0-39.9,0-59.9
				c0-3,0.9-5.7,3.6-6.7c2.7-1,5.6-0.5,7.9,1.9c13.7,14.5,27.5,28.8,41.2,43.3c1.1,1.1,2.2,2.2,3.3,3.2c0.3-0.1,0.5-0.3,0.8-0.4
				c0-15.7,0-31.4,0-47.3c4.4,0,8.4,0,12.8,0c0.1,0.9,0.2,1.9,0.2,2.9c0,19.8,0,39.7,0,59.5c0,5.1-1.6,7.4-6.2,7.8
				c-1.7,0.2-4.2-0.5-5.3-1.7c-7.3-7.5-14.3-15.2-21.4-22.8c-1.9-2-4-3.8-5.9-5.8c-5.1-5.3-10.2-10.6-15.2-15.9
				c-0.7-0.7-1.3-1.5-1.9-2.3C821.6,23.4,821.4,23.6,821.1,23.8z"/>
			<path class="st0" d="M396.9,91.5c4.6,0.5,10.4,0.4,15.7,1.7c12.7,3.1,19.7,12.5,20.6,24.8c0.6,8.3,0.2,16.8-1.3,25
				c-2,11-11.7,19.1-22.8,20.1c-7.6,0.7-15.4,1.3-23,0.7c-14.2-1.1-24.5-8.1-27.3-23.6c-1.8-10.3-2.2-20.8,1.4-30.8
				c3.3-9.2,10.3-15.1,20.2-16.7C385.5,91.9,390.7,92,396.9,91.5z M396,150.8c3.3,0,6.7,0.1,10,0c7-0.2,13.4-4.9,14.2-11.8
				c0.9-7.1,0.9-14.5,0.2-21.6c-0.8-7.4-5.9-12-13.5-12.6c-7.3-0.6-14.8-0.6-22.1,0c-8.7,0.8-13.8,7-13.8,15.7
				c0,5.1-0.1,10.1,0,15.2c0.2,8.6,6.6,14.9,15.2,15.1C389.5,150.8,392.7,150.8,396,150.8z"/>
			<path class="st0" d="M469.4,0c4.1,0.6,10.9,0.7,17.1,2.7c10.8,3.5,16.6,11.8,17.5,23.1c0.5,7.4,0.8,14.9-0.1,22.3
				c-1.4,11.6-9.3,20.5-20.7,22.7c-7.9,1.5-16.2,1.7-24.3,1.5c-11.8-0.3-21.5-4.9-26.7-16.2c-1.4-3.1-2.4-6.6-2.6-10
				c-0.4-6.5-0.3-13.1-0.1-19.7c0.3-12,9.7-23.4,21.6-25.1C456.3,0.6,461.6,0.6,469.4,0z M466.9,59.4c3.2,0,6.5,0.1,9.7,0
				c8.2-0.3,14.4-5.6,15.1-13.8c0.5-6.1,0.5-12.2,0.1-18.3c-0.7-8.5-6.5-13.9-15-14.2c-6.5-0.2-12.9-0.2-19.4,0
				c-8.3,0.3-14.2,5.5-15.1,13.8c-0.6,5.9-0.7,12-0.1,17.9c0.8,9.4,7,14.5,16.5,14.6C461.4,59.4,464.2,59.4,466.9,59.4z"/>
			<path class="st0" d="M0,36.2c0-9.3,0-18.7,0-28c0-4.6,1.9-6.8,6.6-6.8c13.1,0,26.3-0.5,39.3,0.8c12.9,1.2,22.3,11.5,23.3,25.2
				c0.4,4.9-0.1,9.9,0.1,14.9c0.4,13.1-8.1,24.6-21.6,28c-1.9,0.5-4,0.7-6,0.7c-11.8,0.1-23.5,0-35.3,0c-4.2,0-6.3-2-6.3-6.2
				C0,55.3,0,45.8,0,36.2L0,36.2z M12.7,14.3c0,14.7,0,29.1,0,43.6c0.5,0.2,0.8,0.4,1.1,0.4c9.4,0,18.9,0.4,28.3,0
				c9-0.4,14.7-6.8,14.7-15.9c0-4.4,0.1-8.8,0-13.1c-0.2-7.9-5.4-14.3-13.1-14.8C33.5,13.8,23.3,14.3,12.7,14.3z"/>
			<path class="st0" d="M544.8,53.9c0-4.3,0-8.2,0-12.6c4.5,0,8.8,0,13.2,0c3.9,0,7.9-0.1,11.8,0c12.2,0.4,15.2-7.2,13.7-17.1
				c-1.1-7.2-5-9.9-12.2-9.9c-8.4,0-16.8,0-25.3,0c-5.1,0-6.1,1-6.1,6c0,15.6,0,31.1,0,46.7c0,1.2,0,2.5,0,3.9c-4.4,0-8.4,0-12.6,0
				c-0.1-0.6-0.3-1.1-0.3-1.6c0-17.5,0.1-35.1,0-52.6c0-5.6,5.6-12.6,10.4-13.9c2.8-0.8,5.8-1.3,8.8-1.4c8.8-0.2,17.5-0.2,26.3,0
				c12,0.2,20.8,5.7,23,17.9c1.8,9.7,2.7,20.1-5.6,28.1c-4.1,4-9.1,6.5-15.1,6.6C564.9,53.9,555,53.9,544.8,53.9z"/>
			<path class="st0" d="M278.9,134.4c0,9.4,0,18.6,0,28c-4.3,0-8.4,0-12.7,0c0-23.1,0-46.1,0-69.2c4.2,0,8.3,0,12.8,0
				c0,9.4,0,18.6,0,28c14.6,0,28.9,0,43.6,0c0-9.1,0-18.3,0-27.6c4.5,0,8.6,0,12.9,0c0,22.9,0,45.7,0,68.8c-4,0-8.1,0-12.6,0
				c0-9.1,0-18.4,0-27.9C308.2,134.4,293.8,134.4,278.9,134.4z"/>
			<path class="st0" d="M154.8,1.3c0,4.4,0,8.4,0,12.8c-16.6,0-33.3,0-50.3,0c0,4.4,0,8.5,0,12.5c0,8.4,0,16.8,0,25.3
				c0,5.1,1.2,6.2,6.4,6.2c13.3,0,26.5,0,39.8,0c1.3,0,2.5,0,4,0c0,4.3,0,8.4,0,12.7c-0.9,0.1-1.8,0.2-2.6,0.2
				c-14.3,0-28.6,0-42.9,0c-7.6,0-13.3-3.3-16.2-10.5c-1-2.4-1.2-5.3-1.2-8c-0.1-14.4-0.1-28.8,0-43.3c0-6.3,1.8-8,8-8
				C117.9,1.3,136.1,1.3,154.8,1.3z"/>
			<path class="st0" d="M276.7,14.2c0,13.5,0,26.3,0,39.1c0,3.7,1.3,4.8,5.2,4.8c13.6,0,27.2,0,40.8,0c1.2,0,2.5,0,3.9,0
				c0,4.4,0,8.5,0,12.9c-2.7,0-5.4,0-8,0c-12.2,0-24.5,0-36.7,0c-8.4,0-15-3.8-17.5-12.1c-0.5-1.6-0.6-3.3-0.6-5c0-15.3,0-30.7,0-46
				c0-4.2,2-6.5,6.1-6.5c18.8-0.1,37.6,0,56.7,0c0,4.2,0,8.3,0,12.9C310.1,14.2,293.6,14.2,276.7,14.2z"/>
			<path class="st0" d="M454.8,93.2c4.4,0,8.3,0,12.6,0c0,1.4,0,2.6,0,3.9c0,10.3,0,20.5,0,30.8c-0.1,12,7.5,20.6,19.5,21.6
				c7.2,0.6,14.5,0.4,21.7,0.7c2.4,0.1,3.1-0.9,3.1-3.3c-0.1-16.5,0-33,0-49.5c0-1.3,0-2.5,0-4c4.2,0,8.2,0,12.7,0
				c0,1.1,0,2.3,0,3.5c0,19,0,38.1,0,57.1c0,6.5-2.1,8.6-8.7,8.6c-10.3,0-20.5,0.3-30.8-0.2c-7.3-0.4-13.7-3.4-19.2-8.3
				c-8.5-7.6-11-17.2-10.7-28.1c0.2-9.7,0-19.4,0-29.1C454.8,95.7,454.8,94.6,454.8,93.2z"/>
			<path class="st0" d="M699.2,93c0,4.4,0,8.3,0,12.5c-16.7,0-33.2,0-50.1,0c-0.1,1.3-0.2,2.3-0.2,3.2c0,11.5,0,23.1,0,34.6
				c0,5.1,1.2,6.3,6.3,6.3c13.4,0,26.7,0,40.1,0c1.2,0,2.5,0,3.9,0c0,4.4,0,8.4,0,12.6c-0.8,0.1-1.7,0.2-2.6,0.2
				c-14,0-27.9,0-41.9,0c-6.7,0-12.5-1.9-16.2-8c-1-1.7-1.9-3.7-2-5.6c-0.2-16.7-0.3-33.4-0.3-50.2c0-3.9,1.6-5.8,5.3-5.8
				C660.7,92.9,679.9,93,699.2,93z"/>
			<path class="st0" d="M785.8,58.1c0,4.4,0,8.4,0,12.7c-0.9,0.1-1.8,0.2-2.7,0.2c-15,0-30,0.1-45,0.1c-7.3,0-15.1-7.5-15.1-14.7
				c-0.1-15.8-0.1-31.6-0.1-47.4c0-6.1,1.5-7.6,7.8-7.6c13,0,26.1,0,39.1,0c5.2,0,10.4,0,15.8,0c0,4.2,0,8.3,0,12.9
				c-16.5,0-33.2,0-50.2,0c0,2.1,0,3.8,0,5.5c0,10,0,20.1,0,30.1c0,7.8,0.5,8.3,8.1,8.3C757.5,58.1,771.4,58.1,785.8,58.1z"/>
			<path class="st0" d="M247,1.3c-3.6,7.3-6.9,13.8-10.1,20.3c-7.4,15-14.9,30.1-22.2,45.2c-1.5,3-3.5,5.5-6.7,5.4
				c-3.1-0.1-5.1-2.4-6.6-5.4c-8.5-17.7-17.3-35.3-26-52.9c-2-4-4-8-6.3-12.6c5,0,9.1-0.2,13.2,0.1c0.9,0.1,2.1,1.5,2.6,2.5
				c7.1,14.4,14.2,28.9,21.2,43.4c0.5,1,1,2,1.9,3.8c1.3-3,2.3-5.4,3.4-7.6c4.8-9.7,9.7-19.3,14.5-28.9c1.9-3.8,3.7-7.7,5.7-11.5
				c0.4-0.7,1.4-1.6,2.2-1.6C237.9,1.3,242.1,1.3,247,1.3z"/>
			<path class="st0" d="M925,70.9c0-18.8,0-37.5,0-56.4c-9.5,0-18.6,0-28.1,0c0-4.4,0-8.5,0-12.8c22.6,0,45.2,0,68.1,0
				c0,4.1,0,8.2,0,12.6c-9,0-18,0-27.4,0c0,19,0,37.8,0,56.7C933.3,70.9,929.3,70.9,925,70.9z"/>
			<path class="st0" d="M413.1,58.1c0,4.4,0,8.4,0,12.8c-1.1,0-2.2,0.1-3.3,0.1c-18,0-36,0-53.9,0c-4,0-5.9-1.6-6.5-5.5
				c-0.2-1.1-0.1-2.3-0.1-3.4c0-18.9,0-37.8,0-56.7c0-1.2,0-2.5,0-3.9c4.4,0,8.3,0,12.7,0c0,18.7,0,37.4,0,56.6
				C379.2,58.1,396,58.1,413.1,58.1z"/>
			<path class="st0" d="M149.2,29.9c0,4.1,0,8.1,0,12.4c-13.1,0-26.3,0-39.6,0c0-4,0-8.1,0-12.4C122.8,29.9,135.9,29.9,149.2,29.9z"
				/>
			<path class="st0" d="M321.2,30c0,4.2,0,8.2,0,12.5c-13.2,0-26.2,0-39.5,0c0-4.1,0-8.1,0-12.5C294.7,30,307.7,30,321.2,30z"/>
			<path class="st0" d="M780.2,30c0,4.2,0,8.2,0,12.4c-13.2,0-26.3,0-39.6,0c0-4,0-8.1,0-12.4C753.6,30,766.8,30,780.2,30z"/>
			<path class="st0" d="M693.7,121.6c0,4.2,0,8.2,0,12.4c-13.3,0-26.4,0-39.8,0c0-4.1,0-8.1,0-12.4
				C667.1,121.6,680.2,121.6,693.7,121.6z"/>
		</g>
	</g>
</g>
</svg>
